<svg id="Capa_1" data-name="Capa 1" xmlns="http://www.w3.org/2000/svg" viewBox="0 0 316.41 326.86"><defs><style>.cls-1{fill:#7d9e7d;}.cls-2,.cls-3{fill:none;stroke:#475649;stroke-miterlimit:10;stroke-width:0.25px;}.cls-2{stroke-dasharray:14.77 6.89;}.cls-4{opacity:0.14;}.cls-5{opacity:0.15;}.cls-6{fill:#917040;}.cls-7{fill:#2c448c;}.cls-8{fill:#dbcda1;}.cls-9{fill:#731989;}.cls-10{fill:#a0892a;}.cls-11{fill:#8e1b0c;}.cls-12{fill:#23190b;}.cls-13{fill:#bc9153;}.cls-14{fill:#0a6d0a;}.cls-15{fill:#a8824a;}.cls-16{fill:#994c2f;}.cls-17{fill:#35323f;}.cls-18{fill:#2f1354;}.cls-19{fill:#bab9b6;}.cls-20{fill:#35488e;}.cls-21{fill:#726e6a;}</style></defs><title>distancia-fisica-a-sombra</title><g id="distancias-a"><circle id="intimate-space" class="cls-1" cx="166.28" cy="176.73" r="50"/><circle id="personal-space" class="cls-2" cx="166.28" cy="176.73" r="100"/><circle id="social-space" class="cls-3" cx="166.28" cy="176.73" r="150"/></g><path class="cls-4" d="M251.21,235.09l-21.9-16.19a8.89,8.89,0,0,0-3.52-9.08l-32.67-23.2a8.86,8.86,0,0,0-12.33,2.09l-3.2,4.5a8.85,8.85,0,1,0-6,5.81,8.73,8.73,0,0,0,2.89-1.45l-4.11,5.79a8.88,8.88,0,0,0,2.09,12.33l32.68,23.2a8.84,8.84,0,0,0,8.37,1l22.08,16.32a6.64,6.64,0,0,0,9.27-1.39l7.73-10.45A6.66,6.66,0,0,0,251.21,235.09Z" transform="translate(-83.72 -73.27)"/><path class="cls-4" d="M372.74,145l-23-14.58a8.88,8.88,0,0,0-4.16-8.81l-34.24-20.81a8.87,8.87,0,0,0-12.15,3l-2.87,4.72a8.84,8.84,0,1,0-5.55,6.22,8.94,8.94,0,0,0,2.77-1.65l-3.68,6.06a8.86,8.86,0,0,0,3,12.15l34.25,20.81a8.83,8.83,0,0,0,8.42.4l23.19,14.71a6.65,6.65,0,0,0,9.15-2l7-11A6.65,6.65,0,0,0,372.74,145Z" transform="translate(-83.72 -73.27)"/><path class="cls-4" d="M203.8,293.79l-18-11.42a7,7,0,0,0-3.26-6.9l-26.83-16.31a7,7,0,0,0-9.53,2.32l-2.24,3.7a6.94,6.94,0,1,0-4.36,4.87,6.7,6.7,0,0,0,2.18-1.29l-2.89,4.75a7,7,0,0,0,2.33,9.52L168,299.34a7,7,0,0,0,6.6.32l18.17,11.52a5.2,5.2,0,0,0,7.17-1.61l5.46-8.6A5.22,5.22,0,0,0,203.8,293.79Z" transform="translate(-83.72 -73.27)"/><path class="cls-5" d="M212.87,140.76l-21.46-20a9.06,9.06,0,0,0-2.43-10L156.81,81.83a10.13,10.13,0,0,0-13.84.5l-4.22,4.3a9,9,0,0,0,.89-5.38,9.81,9.81,0,1,0-8.36,10.67,10.27,10.27,0,0,0,3.39-1.13l-5.41,5.52a9.1,9.1,0,0,0,0,12.87L150.52,142l-27.14-20.49-1.57-2.35A10.77,10.77,0,0,0,107.5,116l-5.45,3.26a9.47,9.47,0,0,0,2.34-5.25A10.38,10.38,0,1,0,93,122.66a10.72,10.72,0,0,0,3.77-.26l-7,4.2a9.57,9.57,0,0,0-3.15,13.6l25.31,37.92a10.62,10.62,0,0,0,8.65,4.63L137.4,209a8.07,8.07,0,0,0,10.69,2.55l13-7.45A7.18,7.18,0,0,0,163.63,194L147,167.91a9.49,9.49,0,0,0,.16-10.86l-9.51-14.26,19,5-5.77-19.12,10.91,9.8a10.06,10.06,0,0,0,9,2.2l21.64,20.18a7.6,7.6,0,0,0,10.39-.19l10.12-9.93A6.85,6.85,0,0,0,212.87,140.76Z" transform="translate(-83.72 -73.27)"/><path class="cls-4" d="M331.32,243.71l-26.91-11.37a9.5,9.5,0,0,0-6-8.57l-39.91-16a9.52,9.52,0,0,0-12.33,5.29l-2.2,5.5a9.49,9.49,0,1,0-4.78,7.56,9.32,9.32,0,0,0,2.65-2.24L239.05,231a9.51,9.51,0,0,0,5.29,12.33L270,253.58l8.56,16.51-1-1a4.86,4.86,0,0,0-6.86,0l-2.14,2.15a4.74,4.74,0,0,0,.5-2.77,4.85,4.85,0,1,0-4.25,5.38,5,5,0,0,0,1.69-.53l-2.74,2.76a4.86,4.86,0,0,0,0,6.86l15.6,15.48a4.87,4.87,0,0,0,4.44,1.29l10.49,10.8a3.64,3.64,0,0,0,5.14.07l5.12-5a3.65,3.65,0,0,0,.07-5.15l-10.4-10.71a4.87,4.87,0,0,0-1.09-5.23l-6.49-6.43-11.95-22.69,9.51,3.81a9.5,9.5,0,0,0,9-1.07l27.13,11.45a7.13,7.13,0,0,0,9.32-3.79L335.11,253A7.14,7.14,0,0,0,331.32,243.71Z" transform="translate(-83.72 -73.27)"/><g id="personas-a"><g id="padre"><circle class="cls-6" cx="138.18" cy="187.73" r="5"/><circle class="cls-6" cx="194.38" cy="187.73" r="5"/><path class="cls-7" d="M267.7,235c-4.5-1.4-30.9-1.4-35.4,0-11.2,3.7-15.3,25.2-15.3,25.2l9.3,3.3,4.8-8.3c18.9,2.4,18.9,2.4,37.9,0,.7,1.2,4.8,8.3,4.8,8.3l9.3-3.3C283,260.3,278.9,238.8,267.7,235Z" transform="translate(-83.72 -73.27)"/><path class="cls-6" d="M241.9,251.3a9.85,9.85,0,0,0,8.1,4.1,10.13,10.13,0,0,0,8.1-4.1,55,55,0,0,1-16.2,0Z" transform="translate(-83.72 -73.27)"/><path d="M249.9,235.4a10,10,0,0,0-10,10,9.9,9.9,0,0,0,1.9,5.9,53.22,53.22,0,0,0,8.1.6,55.2,55.2,0,0,0,8.1-.6,10,10,0,0,0-8.1-15.9Z" transform="translate(-83.72 -73.27)"/></g><g id="colega"><circle class="cls-8" cx="245.08" cy="58.63" r="5"/><circle class="cls-8" cx="281.78" cy="101.13" r="5"/><path class="cls-9" d="M378.4,149.5c-1.9-4.3-19.2-24.3-23.2-26.8-10.2-6-29.1,5-29.1,5l3.6,9.1s9.4-1.9,9.4-1.8c10.6,15.8,10.6,15.8,24.8,28.6-.4,1.3-3.1,9.1-3.1,9.1l8.5,4.9S382.9,160.4,378.4,149.5Z" transform="translate(-83.72 -73.27)"/><path class="cls-8" d="M349.1,140.7a10,10,0,0,0,10.6,12.2,51.88,51.88,0,0,1-5.8-5.7A57.15,57.15,0,0,1,349.1,140.7Z" transform="translate(-83.72 -73.27)"/><path class="cls-10" d="M366.4,136.3a10,10,0,0,0-14.1-1,10.17,10.17,0,0,0-3.2,5.3,49.48,49.48,0,0,0,4.8,6.5,44.57,44.57,0,0,0,5.8,5.7,10.34,10.34,0,0,0,5.7-2.4A9.89,9.89,0,0,0,366.4,136.3Z" transform="translate(-83.72 -73.27)"/></g><g id="hijo-mayor"><circle class="cls-6" cx="134.48" cy="233.93" r="4"/><circle class="cls-6" cx="106.28" cy="199.03" r="4"/><path class="cls-11" d="M179,291.8c1.4,3.5,14.7,19.9,17.8,22,8,5.1,23.4-3.2,23.4-3.2l-2.6-7.4-7.6,1.2c-8-12.9-8-12.9-19.1-23.6.4-1.1,2.8-7.2,2.8-7.2l-6.7-4.1C187,269.6,175.7,283,179,291.8Z" transform="translate(-83.72 -73.27)"/><path class="cls-6" d="M202.1,299.7a8,8,0,0,0-1.5-7.1,7.94,7.94,0,0,0-6.6-3,32.66,32.66,0,0,1,4.4,4.7A34.67,34.67,0,0,1,202.1,299.7Z" transform="translate(-83.72 -73.27)"/><path class="cls-12" d="M188.2,302.7a8.07,8.07,0,0,0,11.3,1.2,7.68,7.68,0,0,0,2.7-4.2,46,46,0,0,0-3.7-5.3,49.73,49.73,0,0,0-4.4-4.7,8,8,0,0,0-5.9,13Z" transform="translate(-83.72 -73.27)"/></g><g id="mama-hijo-menor"><g id="mama-hijo-menor-2" data-name="mama-hijo-menor"><circle class="cls-13" cx="225.98" cy="212.03" r="3.5"/><circle class="cls-13" cx="198.18" cy="239.83" r="3.5"/><path class="cls-14" d="M299.9,320.8c2.9-1.5,16-14.6,17.5-17.5,3.7-7.4-4.9-20.1-4.9-20.1l-6.2,3s1.8,6.5,1.7,6.5c-10.5,8.2-10.5,8.2-18.8,18.8-1-.2-6.5-1.7-6.5-1.7l-3,6.2C279.8,315.9,292.5,324.5,299.9,320.8Z" transform="translate(-83.72 -73.27)"/><path class="cls-13" d="M304.6,300a6.87,6.87,0,0,0-6,2,7.17,7.17,0,0,0-2,6,37.92,37.92,0,0,1,8-8Z" transform="translate(-83.72 -73.27)"/><path d="M308.5,311.8a7.06,7.06,0,0,0,0-9.9,7.7,7.7,0,0,0-3.9-2,37.92,37.92,0,0,0-8,8,7,7,0,0,0,2,3.9A6.88,6.88,0,0,0,308.5,311.8Z" transform="translate(-83.72 -73.27)"/><circle class="cls-15" cx="229.18" cy="149.13" r="5"/><circle class="cls-15" cx="229.18" cy="205.23" r="5"/><path class="cls-16" d="M338.8,268.2c1.4-4.5,1.4-30.9,0-35.4-3.7-11.2-25.2-15.3-25.2-15.3l-3.3,9.3,8.3,4.8c-2.4,18.9-2.4,18.9,0,37.9l-8.3,4.8,3.3,9.3C313.6,283.5,335.1,279.4,338.8,268.2Z" transform="translate(-83.72 -73.27)"/><path class="cls-15" d="M322.6,242.3a9.85,9.85,0,0,0-4.1,8.1,10.13,10.13,0,0,0,4.1,8.1,53.22,53.22,0,0,1-.6-8.1A36.86,36.86,0,0,1,322.6,242.3Z" transform="translate(-83.72 -73.27)"/></g><path class="cls-17" d="M339.9,246.8a3.08,3.08,0,0,0-1.9.6,10.12,10.12,0,0,0-9.5-7,9.9,9.9,0,0,0-5.9,1.9,53.22,53.22,0,0,0-.6,8.1,55.2,55.2,0,0,0,.6,8.1,10.06,10.06,0,0,0,15.5-5.2,3.83,3.83,0,0,0,1.9.5,3.54,3.54,0,0,0,3.5-3.5A3.63,3.63,0,0,0,339.9,246.8Z" transform="translate(-83.72 -73.27)"/></g><g id="abuelos"><circle class="cls-6" cx="75.68" cy="161.13" r="4.5"/><circle class="cls-6" cx="96.48" cy="115.13" r="4.5"/><path class="cls-18" d="M155,187.2c-2.8,3.2-12.6,24.9-13.1,29.1-1.1,10.6,15,22,15,22l6.1-6.4-5.1-7c8.9-14.6,8.9-14.6,14-31.1,1.2-.2,8.6-.9,8.6-.9l.7-8.8C181.4,184,162.3,179.4,155,187.2Z" transform="translate(-83.72 -73.27)"/><path class="cls-6" d="M158.8,214.4a9,9,0,0,0,6.3-5.1,8.88,8.88,0,0,0-.4-8.1,42.3,42.3,0,0,1-2.4,6.8A43.63,43.63,0,0,1,158.8,214.4Z" transform="translate(-83.72 -73.27)"/><path class="cls-19" d="M160.7,197.4a9,9,0,0,0-10.2,2,3.25,3.25,0,0,0-5.9,2.7,3.37,3.37,0,0,0,3.6,2.1A9,9,0,0,0,159,214.4a43.63,43.63,0,0,0,3.5-6.4,46,46,0,0,0,2.4-6.8A9.67,9.67,0,0,0,160.7,197.4Z" transform="translate(-83.72 -73.27)"/><circle class="cls-13" cx="101.68" cy="108.33" r="5"/><circle class="cls-13" cx="154.28" cy="88.53" r="5"/><path class="cls-20" d="M219.1,141.2c-4.7.3-29.4,9.6-33.1,12.5-9.1,7.5-5.4,29-5.4,29l9.8-.3,1.5-9.5c18.5-4.4,18.5-4.4,35.4-13.4,1.1.8,7.4,6.1,7.4,6.1l7.5-6.3C242.3,159.4,230.9,140.7,219.1,141.2Z" transform="translate(-83.72 -73.27)"/><g id="cabeza"><circle id="pelao" class="cls-13" cx="122.38" cy="84.03" r="9.5"/><path id="pelaes" class="cls-21" d="M202.6,147.7a10,10,0,0,0-5.8,12.9,9.84,9.84,0,0,0,3.9,4.8c2.6-.6-4.4-11.2,3.6-13.8,8-2.2,9.2,9.4,11.5,8a10.17,10.17,0,0,0-.3-6.2A10.28,10.28,0,0,0,202.6,147.7Z" transform="translate(-83.72 -73.27)"/></g></g></g></svg>